<?xml version="1.0" standalone="no"?>
<!DOCTYPE svg PUBLIC "-//W3C//DTD SVG 20010904//EN"
 "http://www.w3.org/TR/2001/REC-SVG-20010904/DTD/svg10.dtd">
<svg version="1.0" xmlns="http://www.w3.org/2000/svg"
 width="977.000000pt" height="796.000000pt" viewBox="0 0 977.000000 796.000000"
 preserveAspectRatio="xMidYMid meet">

<g transform="translate(0.000000,796.000000) scale(0.100000,-0.100000)"
fill="#000000" stroke="none">
<path d="M5210 7130 c-216 -54 -390 -169 -499 -328 -88 -130 -164 -321 -197
-498 l-17 -91 -39 81 c-97 200 -225 335 -404 424 -89 45 -168 62 -281 62 -205
0 -372 -77 -536 -249 -247 -259 -324 -518 -297 -1005 7 -120 8 -221 3 -226 -4
-4 -53 -22 -107 -41 -183 -62 -351 -174 -531 -354 -232 -232 -361 -462 -511
-910 -114 -343 -142 -562 -113 -890 21 -247 82 -462 198 -701 254 -519 642
-852 1252 -1073 306 -110 502 -162 749 -195 509 -70 992 -80 1416 -31 477 56
1066 246 1614 520 533 267 925 681 1125 1190 50 126 152 511 179 675 43 257
46 596 8 775 -36 169 -117 377 -208 540 -31 55 -70 125 -87 155 -38 69 -233
263 -346 344 -244 174 -615 361 -860 432 -66 19 -301 63 -342 64 -3 0 -11 33
-18 73 -52 297 -132 568 -221 745 -83 164 -131 234 -229 333 -71 71 -101 94
-171 127 -47 22 -115 47 -151 56 -91 22 -281 20 -379 -4z m382 -131 c99 -28
163 -63 231 -128 136 -129 243 -324 326 -593 31 -100 96 -397 111 -508 5 -36
23 -141 40 -235 32 -186 60 -414 60 -498 l0 -53 -117 -12 c-64 -6 -120 -9
-125 -6 -4 3 -8 31 -8 63 0 73 -36 429 -51 501 -16 79 -65 213 -111 305 -53
104 -141 193 -235 237 -86 41 -206 50 -299 23 -324 -93 -486 -438 -471 -1005
3 -102 8 -194 11 -206 7 -20 1 -21 -241 -38 -136 -10 -260 -20 -274 -23 l-26
-5 -7 99 c-29 427 -53 546 -143 726 -44 89 -98 141 -191 185 -71 34 -84 37
-168 37 -84 0 -95 -2 -168 -39 -140 -69 -232 -182 -270 -330 -40 -156 -41
-488 -1 -677 9 -40 14 -73 13 -74 -2 -2 -72 -11 -156 -22 l-152 -18 -10 35
c-86 325 -136 956 -95 1196 30 174 79 284 184 416 234 295 515 377 793 231
119 -62 233 -184 303 -323 26 -50 59 -139 148 -397 22 -67 36 -93 48 -93 13 0
17 17 22 103 5 93 19 183 63 397 80 393 258 619 564 719 136 44 266 47 402 10z
m978 -1346 c219 -43 558 -195 840 -378 155 -100 315 -252 423 -400 119 -164
244 -462 283 -670 24 -134 22 -438 -5 -620 -27 -177 -106 -502 -164 -668 -43
-124 -127 -287 -210 -412 -165 -247 -409 -478 -694 -657 -197 -124 -579 -296
-895 -403 -242 -82 -371 -118 -488 -136 -41 -6 -86 -17 -100 -24 -55 -28 -298
-60 -591 -76 -426 -24 -1061 30 -1414 121 -129 34 -396 124 -547 185 -388 159
-690 400 -901 720 -165 251 -277 553 -307 832 -19 174 -8 469 23 608 67 300
224 689 360 891 176 262 461 492 718 579 l66 23 17 -127 c23 -168 63 -345 92
-403 39 -76 38 -76 264 -44 257 36 1433 131 1995 161 316 17 453 29 755 69
102 13 222 27 267 31 82 7 82 7 100 43 30 62 18 282 -33 600 -13 84 -24 160
-24 168 0 17 31 15 170 -13z"/>
<path d="M6260 4205 c-76 -22 -197 -89 -247 -137 -52 -51 -98 -136 -118 -219
-21 -87 -30 -354 -16 -452 6 -43 23 -113 37 -155 44 -132 170 -380 270 -530
53 -78 94 -147 92 -153 -6 -17 -216 -109 -355 -155 -261 -86 -524 -121 -823
-109 -848 33 -1454 289 -2005 844 -92 93 -115 111 -140 111 -17 0 -40 -6 -50
-14 -19 -13 -19 -15 -1 -54 23 -50 264 -290 401 -398 267 -210 557 -368 860
-467 416 -137 1066 -191 1460 -122 360 63 744 226 1111 471 211 141 465 362
562 488 26 33 66 83 90 109 84 95 86 140 10 239 -30 40 -81 111 -114 158 -193
281 -328 406 -524 486 -148 60 -393 89 -500 59z m266 -130 c266 -47 429 -155
603 -401 47 -66 111 -157 144 -202 l59 -84 -34 -36 c-19 -21 -60 -69 -91 -109
-97 -122 -330 -324 -527 -456 -95 -64 -263 -165 -281 -170 -4 -1 -55 70 -114
158 -115 172 -205 347 -257 496 -30 89 -32 104 -36 267 -7 297 24 385 165 477
115 74 202 89 369 60z"/>
</g>
</svg>
